<?xml version="1.0" encoding="utf-8"?>
<svg version="1.1" id="Layer_1" xmlns="http://www.w3.org/2000/svg" xmlns:xlink="http://www.w3.org/1999/xlink" x="0px" y="0px"
	 viewBox="0 0 5000 1007.046" enable-background="new 0 0 5000 1007.046" xml:space="preserve">
<path d="M4955.945,289.324c-1.696,2.744-8.98,4.988-16.188,4.988c-15.377,0-76.341,14.513-83.582,19.898
	c-23.761,17.669-100.098,48.781-105.771,43.107c-1.325-1.324,4.49-5.975,12.92-10.334c33.817-17.488,79.676-70.435,124.578-66.581
	c21.868,1.877,33.336-12.743,18.588-23.697c-8.422-6.255-11.543-5.859-26.452,3.355c-9.297,5.746-18.12,9.231-19.607,7.744
	c-3.335-3.327,35.527-28.317,44.281-28.47c14.306-0.251,30.439-20.283,54.261-67.373c27.908-55.167,29.269-68.725,41.027-159.491
	c-98.569,79.867-82.034,56.027-111.605,104.758c-21.16,34.869-39.595,73.355-39.655,82.776
	c-0.145,23.509-21.742,68.301-43.667,90.56c-32.537,33.034-40.291,30.782-20.561-5.971c13.318-24.809,14.88-30.948,9.514-37.413
	c-14.134-17.031-35.987,1.949-25.28,21.955c9.016,16.847-30.468,86.892-57.052,101.212c-26.79,14.431,32.239-31.89,32.239-95.614
	c0-41.007,11.186-59.227,7.013-65.979c-5.155-8.341-96.841,81.79-107.338,105.518c-5.462,12.347-16.282,29.183-24.043,37.413
	c-40.049,42.474-29.57,90.62-61.417,118.373c-20.336,17.722-24.711,13.116-6.047-6.366c11.602-12.109,13.397-16.785,9.079-23.643
	c-11.774-18.696-31.502-11.428-31.674,11.67c-0.122,16.288-26.535,47.808-59.49,70.993c-38.299,26.945-38.646,22.406-1.025-13.394
	c49.661-47.257,25.599-49.768,66.181-112.485c22.203-34.313,19.101-46.864-6.3-25.491c-8.869,7.462-36.914,23.479-62.323,35.593
	c-54.475,25.971-118.114,86.159-144.141,136.324c-18.946,36.516-32.537,53.347-49.212,60.945
	c-28.491,12.981-13.604-9.065,26.313-38.97c6.191-4.638,6.719-7.924,2.401-14.965c-7.821-12.755-23.376-11.409-26.668,2.309
	c-3.582,14.925-54.394,65.99-65.662,65.99c-4.84,0-10.006,1.95-11.479,4.333c-3.745,6.059-36.347,8.8-51.101,13.58
	c-14.729,4.772,11.335-15.545,48.202-37.572c40.918-24.448,52.761-37.51,81.679-90.087c12.827-23.321,25.993-46.222,29.259-50.892
	c9.012-12.887,1.628-15.672-16.585-6.254c-29.919,15.472-65.244,21.661-118.965,56.93c-21.077,13.837-40.734,25.159-43.682,25.159
	c-7.697,0-42.851,36.241-51.482,53.075c-36.278,70.754-123.807,94.13-63.14,47.334c29.304-22.603,33.276-30.185,21.108-40.283
	c-9.511-7.894-27.755,1.545-27.755,14.359c0,10.646-29.688,38.442-49.192,46.057c-60.752,23.72-67.062,20.284-24.976-13.603
	c58.628-47.206,68.706-57.913,96.292-102.297c34.938-56.215,35.539-63.725,3.818-47.74c-27.062,13.638-74.015,15.276-106.984,40.341
	c-11.672,8.873-39.179,26.466-61.129,39.095c-29.027,16.702-89.628,69.953-104.096,89.995c-1.56,1.496-3.057,3.051-4.492,4.663
	c-1.573,1.561-3.09,3.183-4.558,4.858c-2.5-0.3-6.009,0.383-11.441,2.858c-31.093,14.167-25.116-0.983,8.847-22.423
	c21.995-13.884,24.46-32.776,4.645-35.588c-8.881-1.26-12.882,2.113-18.524,15.615c-8.113,19.416-33.924,43.359-46.742,43.359
	c-4.666,0-12.912,3.032-18.324,6.739c-14.254,9.762-63.182,15.623-50.658,6.069c4.986-3.804,19.458-9.925,32.159-13.603
	c25.608-7.415,65.465-42.544,87.007-76.684c6.98-11.062,25.488-29.986,41.13-42.054c48.409-37.347,80.433-101.14,33.266-66.269
	c-8.194,6.058-32.48,14.247-56.155,18.933c-84.858,16.799-45.498,26.378-126,65.034c-29.801,14.31-39.408,22.271-60.382,50.037
	c-67.22,88.986-59.381,79.496-199.539,87.982c7.49-6.713,38.214-35.715,46.459-35.976c4.355-0.138,6.027-5.63,4.988-16.379
	c-2.693-27.865-33.948-22.758-34.022,5.558c-0.071,27.219-56.84,52.996-127.172,57.745c-62.771,4.238-72.333,9.783-72.333,4.336
	c0-5.666,47.448-29.743,67.344-34.172c135.78-30.23,150.406-94.994,210.185-131.5c26.202-16.001,84.851-82.76,76.98-87.624
	c-6.068-3.751-47.84,7.279-76.602,7.279c-20.488,0-62.016,16.698-93.334,37.529c-9.603,6.387-29.629,15.531-44.502,20.32
	c-82.678,26.62-90.347,137.932-189.614,184.893c-69.619,32.934-55.701,11.669-50.72,11.669c16.72,0,75.843-53.73,74.103-67.344
	c-2.153-16.835-25.816-13.484-27.816,3.939c-2.296,19.998-31.411,32.697-77.218,68.595c-31.749,24.88-16.122-11.711,9.044-25.18
	c36.732-19.659,59.363-51.448,89.719-126.031c25.883-63.592,26.114-73.439,1.179-50.389c-55.152,50.983-54.358,32.478-97.162,65.98
	c-13.053,10.217-34.208,24.647-47.01,32.066c-24.533,14.218-56.355,47.452-65.525,68.433c-18.648,42.667-73.09,93.706-93.158,87.336
	c-17.075-5.42-187.158,32.678-321.589,72.034c-34.454,10.087-34.827,10.09-72.333,0.511
	c-370.758-94.684-350.816-87.153-377.115-142.421c-24.501-51.49-39.38-69.483-75.508-91.312
	c-19.161-11.578-39.864-26.829-46.005-33.893c-14.457-16.627-41.884-24.747-89.106-48.02c-51.063-25.166-36.453-17.583,8.425,80.304
	c15.243,33.246,34.379,46.904,82.671,90.782c19.205,17.45,35.668,33.488,36.582,35.64c2.204,5.184-5.897,5.013-11.889-0.252
	c-2.607-2.29-15.339-8.064-28.294-12.83c-33.286-12.247-73.72-49.556-73.72-68.024c0-16.813-12.819-26.228-26.061-19.141
	c-13.28,7.107-10.706,23.357,5.25,33.147c15.901,9.757,60.719,48.441,60.719,52.409c0,2.843-26.632-2.896-42.402-9.138
	c-30.62-12.12-73.351-62.266-106.98-125.544c-24.339-45.798-42.151-61.468-94.574-83.197
	c-85.587-35.475-65.309-52.514-135.135-53.066c-64.456-0.509-109.454-30.417-38.204,40.591
	c117.125,116.727,156.407,147.146,209.811,162.47c134.82,38.685,139.809,69.229,94.396,57
	c-51.878-13.969-83.635-1.362-143.072-30.845c-37.656-18.678-49.084-28.595-45.601-39.57c6.021-18.969-23.621-26.042-34.427-8.215
	c-5.964,9.839,16.619,34.059,40.62,43.564c21.025,8.326,12.561,15.161-14.965,12.086c-96.235-10.752-118.061-21.031-142.93-67.316
	c-11.181-20.81-23.856-35.571-43.448-48.025c-21.427-13.621-39.389-31.827-58.462-48.401
	c-77.154-67.045-104.566-27.623-159.893-60.046c-54.165-31.743-31.279,14.52,31.782,64.246
	c14.515,11.445,36.052,36.485,50.509,58.723c26.061,40.087,42.891,53.004,85.778,65.831c40.474,12.105,2.512,22.844-31.471,5.892
	c-28.937-14.434-17.74,0.995-56.054-38.159c-32.244-32.952-35.874-34.598-43.767-19.851c-7.337,13.709-4.436,16.947,31.374,35.006
	c39.316,19.828,46.906,27,23.555,22.257c-29.392-5.969-51.031-18.579-59.382-34.604c-14.48-27.786-52.21-60.825-80.006-70.057
	c-14.554-4.834-38.792-19.295-55.132-32.893c-40.108-33.377-57.267-30.4-145.943-57.942c-13.713-4.26-10.622,3.487,17.46,43.748
	c76.649,109.893,72.371,79.108,150.901,145.071l-24.317-2.887c-40.99-4.866-93.599-40.019-94.835-63.368
	c-1.188-22.445-32.655-25.186-36.985-3.222c-1.426,7.232,57.309,53.706,67.875,53.706c2.602,0,7.525,3.367,10.941,7.483
	c8.044,9.693,5.804,9.49-32.775-2.974c-31.355-10.13-57.017-33.694-57.017-52.355c0-8.914-39.586-51.5-55.542-59.752
	c-7.97-4.122-28.733-20.4-46.139-36.174c-28.52-25.846-35.534-29.587-70.988-37.862c-21.638-5.05-44.953-11.983-51.812-15.406
	c-73.183-36.52-5.612,29.017,2.517,62.675c6.264,25.94,38.51,61.352,70.115,76.998c159.329,78.876-62.842,18.825-72.632-43.885
	c-2.825-18.097-22.023-22.834-31.521-7.777c-4.891,7.754,4.654,24.226,14.038,24.226c1.751,0,15.38,10.53,30.287,23.4
	c28.426,24.541,36.882,38.886,13.385,22.707c-33.655-23.172-54.319-12.112-73.225-76.148
	c-15.018-50.865-83.771-114.938-154.835-144.294c-21.86-9.03-44.94-19.822-51.287-23.981c-20.491-13.426-19.143-1.432,5.091,45.301
	c23.445,45.211,40.162,88.219,35.933,92.448c-4.152,4.151-42.568-41.757-45.327-54.167c-5.186-23.332-6.879-25.642-17.619-24.045
	c-16.582,2.466-24.143,18.662-12.049,25.807c34.171,20.187,42.29,42.167,9.023,24.427c-23.664-12.619-23.697-12.673-24.938-40.918
	c-1.433-32.623-18.025-71.115-40.217-93.308c-8.082-8.082-19.75-24.68-25.929-36.885c-36.923-72.931-53.529-52.55-83.873-90.147
	c-17.557-21.752-20.84-17.867-20.84,24.665c0,37.397,7.683,70.616,23.217,100.383c19.491,37.349,2.291,31.944-23.29-7.319
	c-17.448-26.781-21.486-37.522-22.825-60.722c-1.724-29.864-10.068-43.782-23.221-38.734c-12.96,4.973-15.399,18.817-4.824,27.38
	c10.077,8.16,19.781,44.75,11.868,44.75c-16.686,0-50.074-54.422-62.832-102.411C121.016,51.248,74.123,60.307,27.186,14.814
	C18.78,6.666,9.203,0,5.904,0c-7.056,0-8.153,23.022-1.298,27.258c2.585,1.598,6.129,13.515,7.875,26.484
	c13.315,98.901,72.405,195.681,119.475,195.681c7.474,0,20.134,15.858,25.087,21.448c-10.537-2.542-28.006-5.426-40.379-16.97
	c-27.328-25.496-44.985,25.453,2.235,25.453c49.342,0,148.434,79.815,132.456,79.815c-6.875,0-14.23-3.684-20.494-6.104
	c-7.815-3.02-14.872-7.055-21.963-11.492c-2.878-1.801-5.755-3.601-8.633-5.402c-13.412-8.392-26.63-17.625-40.717-24.829
	c-12.942-6.617-27.036-10.188-41.401-12.021c-69.255-8.837-91.386-37.757-69.183,7.944c30.91,63.622,51.286,81.847,140.724,125.864
	c67.472,33.207,78.795,35.363,136.256,25.953c25.451-4.168,31.791-3.476,49.121,5.365c24.859,12.682,20.858,18.323-6.574,9.269
	c-18.906-6.24-21.129-6.019-27.527,2.731c-11.187,15.299,5.941,29.915,25.951,22.144c18.62-7.232,80.674-2.348,114.38,9.002
	l24.942,8.398c-16.778,2.103-43.779,7.178-82.608,1.297c-56.799-8.603-64.328,12.783-125.24,19.998
	c-46.989,5.565-9.566,40.778,75.859,71.379c67.803,24.289,77.644,24.481,123.154,2.403c73.46-35.637,95.194-39.258,138.264-23.034
	c16.756,6.311,34.661,9.917,41.155,8.287c7.48-1.877,11.489-0.674,11.479,3.446c-0.02,8.67-62.695,7.729-81.259-1.22
	c-15.824-7.628-15.331-5.314-35.678,15.033c22.017,22.017,17.635,22.511,45.098,12.023c27.487-10.497,92.903-12.912,102.054-3.768
	c4.359,4.356-3.79,6.56-33.419,9.036c-86.704,7.247-188.431,70.515-127.114,60.709c22.079-3.53,58.528,3.448,82.942,15.881
	c27.428,13.967,65.104,20.312,88.37,14.881c11.757-2.744,38.272-4.887,58.922-4.761c40.262,0.245,49.59-3.482,94.719-37.844
	c20.965-15.963,104.688-24.341,104.688-10.476c0,2.298-3.928,4.188-8.73,4.198c-13.04,0.027-30.065,17.173-69.132,27.349
	c-61.078,15.908-81.054,59.09-124.266,79.595c-16.682,7.916-22.111,22.622-6.764,18.32c3.773-1.058,26.138-1.617,49.701-1.243
	c65.221,1.036,70.551-14.154,129.619-14.24c46.959-0.067,75.472-9.514,106.766-35.374c49.379-40.804,78.996-54.472,118.039-54.472
	c19.657,0,30.601-1.903,32.862-4.798c1.271-0.513,2.523-1.066,3.751-1.672c3.013-0.232,6.021-0.567,9.034-1.008
	c0.662-0.097,1.168-0.341,1.561-0.664c9.033,5.038-0.647,18.995-20.525,23.122c-14.955,3.105-28.542,7.83-30.192,10.501
	c-1.651,2.671-7.41,3.456-12.797,1.746c-21.289-6.757-32.825,19.911-13.763,31.816c21.956,13.712,19.512-24.124,64.399-31.537
	c12.296-2.031,24.6-5.332,27.344-7.336c16.373-11.961,92.287-25.076,92.287-15.944c0,6.613-54.696,33.402-82.027,40.176
	c-79.412,19.682-104.767,62.416-136.219,76.784c-11.072,5.058-15.744,18.491-6.431,18.491c2.636,0,27.249,2.443,54.695,5.427
	c42.672,4.642,55.168,4.198,86.246-3.063c91.773-21.443,103.318,8.117,180.27-69.937c34.432-34.924,66.452-48.111,112.833-46.469
	c29.034,1.028,31.795,6.138,8.876,16.426c-24.313,10.913-35.029,20.59-55.001,27.691c-16.584,5.896-22.055,17.322-13.329,27.836
	c9.533,11.486,31.806,7.188,33.752-6.513c2.404-16.925,55.371-46.003,95.051-52.18c31.429-4.893,95.539-1.429,95.29,5.149
	c-0.219,5.804-66.843,35.764-79.786,35.879c-53.037,0.469-129.25,99.113-154.76,107.21c-20.402,6.475-10.09,15.936,20.899,19.175
	c142.918,14.937,118.739-20.574,189.974-28.569c47.003-5.276,77.799-19.879,113.251-53.702
	c51.289-48.932,100.641-64.738,160.846-51.515c15.993,3.513,14.286,12.236-2.418,12.361c-52.451,0.394-102.572,26.994-80.826,42.895
	c10,7.313,22.506,3.865,22.506-6.204c0-12.941,117.951-38.945,152.148-33.543c51.891,8.197,45.422,16.636-12.471,16.272
	c-41.665-0.263-66.549,6.952-99.805,28.937c-32.396,21.416-86.309,35.132-116.368,55.615c-11.428,7.788-26.952,15.665-34.497,17.504
	c-16.595,4.046-17.881,12.011-2.494,15.45c34.605,7.734,134.506,12.745,153.28,7.69c11.116-2.993,36.453-6.579,56.306-7.969
	c58.224-4.075,65.296-7.667,132.049-67.052c35.222-31.335,42.862-30.721,218.32,17.552c80.793,22.228,107.175,25.159,74.827,35.252
	c-17.828,5.562-71.618,27.13-159.532,63.966c-43.495,18.224-40.984,23.069,11.957,23.069c33.543,0,65.979-6.454,96.435-21.083
	c22.3-10.712,45.931-18.405,66.106-33.341c19.689-14.542,66.946-21.645,88.192-13.255c48.681,19.224,107.898,44.314,131.822,55.854
	c40.487,19.529,97.947,16.73,129.176,26.322c20.486,6.296,33.592,6.465,31.573,0.406c-3.018-9.053-181.596-84.238-242.837-102.239
	c-22.343-6.567-6.51-12.32,128.955-46.854c151.262-38.561,154.672-38.283,217.526,17.732
	c73.177,65.214,92.062,37.627,153.962,50.544c46.079,9.616,96.186-9.97,123.618-16.043c23.375-5.175,15.81-11.77-48.567-42.334
	c-34.257-16.264-68.903-34.284-76.991-40.044c-64.135-45.668-165.031-12.389-143.418-34.002
	c19.933-19.934,152.319-1.871,181.253,24.73c14,12.871,32.897,8.151,30.646-7.654c-1.18-8.284-6.18-11.602-21.492-14.262
	c-86.527-15.03-99.632-26.352-37.214-32.153c45.947-4.271,69.624,5.84,116.751,49.857c47.406,44.277,60.285,51.524,103.386,58.174
	c102.613,15.832,58.297,32.366,164.861,31.179c129.679-1.445,43.394-15,11.537-60.97c-16.908-24.398-26.954-31.058-75.98-50.375
	c-56.063-22.09-67.278-36.081-90.225-45.691c-15.991-6.697,53.55-16.462,81.25-11.409c30.551,5.572,89.523,37.267,98.525,52.952
	c11.891,20.719,31.175,18.825,31.175-3.062c0-23.532-13.206-13.863-42.402-33.387c-6.859-4.587-18.644-9.858-26.189-11.713
	c-23.939-5.886-14.834-12.27,17.46-12.24c51.341,0.046,100.521,22.217,140.924,63.53c23.876,24.415,53.164,36.974,91.021,39.031
	c52.962,2.879,90.449,19.69,122.196,15.154c11.682-1.669,34.148-4.422,49.924-6.116c29.688-3.188,38.995-13.124,17.46-18.639
	c-28.139-7.206-79.251-65.24-135.936-75.187c-23.339-4.095-87.298-32.298-87.298-38.494c0-20.212,147.159,18.78,167.922,44.493
	c12.135,15.028,29.123,11.329,29.123-6.341c0-16.749-19.649-14.408-79.815-39.007c55.831-13.436,88.081-17.325,174.596,46.615
	c55.513,41.028,69.253,46.679,106.03,43.612c15.762-1.314,35.393-0.402,43.624,2.027c30.133,8.894,112.24,4.454,112.24-6.068
	c0-2.265-8.831-10.44-19.624-18.166c-39.072-27.972-63.556-52.56-104.764-66.372c-48.552-16.274-51.498-29.986-63.353-29.986
	c-3.745,0-6.81-2.024-6.81-4.499c0-8.16,59.169-12.273,68.14-4.736c8.188,6.879,31.482,19.801,71.537,39.683
	c17.936,8.902,33.478,11.568,77.321,13.263c142.435,5.507,98.01,3.505,188.314-32.968c14.025-5.665,18.766-15.732,7.409-15.732
	c-3.47,0-14.133-4.159-23.695-9.242c-56.61-30.095-188.538-20.541-141.187-39.915c13.646-5.584,100.147,2.192,129.293,11.622
	c6.726,2.176,13.352,0.52,18.495-4.623c14.568-14.568-2.695-32.751-21.526-22.673c-10.806,5.783-54.839,6.757-54.839,1.213
	c0-6.09,62.687-26.173,81.695-26.173c11.14,0,32.843,8.176,59.899,22.566c52.877,28.123,144.703,22.939,192.317-9.331
	c18.384-12.459,36.169-25.912,54.214-38.863c4.451-3.195,14.786-11.803,8.032-16.71c-10.668-7.751-29.4,10.144-77.096-5.768
	c-68.88-22.978-221.595,14.003-140.671-21.793c22.2-9.82,58.471-12.268,123.412-8.329c12.066,0.732,15.274-1.27,16.562-10.339
	c1.924-13.548-10.103-19.52-25.61-12.718c-12.671,5.558-26.685,0.446-35.848-2.072c12.094-4.9,23.684-11.448,56.397-10.63
	c105.701,2.645,103.268,2.918,124.248-13.951c36.776-29.571,74.305-25.852,104.895-57.534
	c20.662-21.399,81.113-98.791,81.113-103.844C4973.404,282.851,4959.952,282.839,4955.945,289.324z M4847.526,243.189
	c7.244-8.958,21.16-73.098,37.701-97.992c6.575-9.894,16.598-25.846,22.274-35.449c8.847-14.969,60.799-64.85,67.54-64.85
	c3.323,0-6.316,30.997-6.536,52.379c-0.188,18.826-9.394,31.553-33.229,78.477c-14.643,28.826-33.168,48.933-39.371,42.73
	c-1-1.001,8.11-21.947,20.246-46.548c50.022-101.405-2.183-30.918-2.427-26.435c-0.7,12.979-35.098,75.521-50.629,92.055
	C4851.615,249.774,4838.307,254.59,4847.526,243.189z M3258.067,615.898c56.748-79.335,54.385-47.596,125.142-90.299
	c24.384-14.715,123.583-41.598,123.583-33.49c0,5.548-41.567,42.54-65.465,58.258c-47.315,31.121-70.328,73.603-116.945,96.883
	c-87.405,43.648-61.625,4.407,46.474-70.739c35.438-24.635,48.791-37.755,38.424-37.755c-4.343,0-118.951,75.009-124.475,81.467
	C3240.017,672.578,3219.855,669.318,3258.067,615.898z M1739.391,628.795c-135.325-108.576-188.985-118.097-114.496-68.049
	c47.795,32.112,111.013,86.335,129.058,97.732c6.516,4.116,11.852,9.166,11.857,11.224c0.012,5.187-3.069,4.542-39.899-8.357
	c-98.839-34.617-81.174-55.193-163.263-119.503c-35.777-28.029-42.375-43.503-50.905-57.959c49.327,0,105.203,25.357,138.159,50.346
	c6.21,4.708,22.862,12.704,37.005,17.767c30.7,10.992,45.11,24.565,76.231,71.804
	C1793.463,669.828,1791.142,670.316,1739.391,628.795z M79.644,122.219C66.429,94.815,57.23,80.696,56.036,85.98
	c-2.254,9.972,36.906,95.177,54.959,119.579c19.907,26.908,27.142,38.985-4.997,18.402C76.721,205.211,15.582,56.133,31.314,41.855
	c9.947-9.028,71.991,61.04,88.83,100.317C162.465,240.893,128.901,224.355,79.644,122.219z M205.35,417.572
	c-4.62-4.068-22.332-14.366-39.361-22.885c-40.849-20.434-96.244-73.604-96.244-92.379c0-11.959,82.837,16.01,114.243,38.573
	c12.667,9.1,34.234,20.556,47.927,25.458c48.144,17.233,77.42,34.257,70.615,41.063c-7.137,7.137-59.352-5.281-91.06-21.657
	c-66.322-34.252-72.872-37.229-75.695-34.406c-3.881,3.881-4.384,3.526,45.87,32.366c49.985,28.686,74.849,38.276,112.036,43.208
	c14.018,1.86,25.487,5.337,25.487,7.727C319.168,448.857,224.806,434.706,205.35,417.572z M339.25,345.765
	c-77.712-159.589-13.278,36.302,24.726,70.695c11,9.955,13.065,17.538,4.776,17.538c-12.545,0-59.563-51.362-59.563-65.067
	c0-7.554-6.831-26.721-15.18-42.592c-17.248-32.79-14.749-37.526-12.257-87.675l30.267,27.423
	c55.451,50.24,18.849,43.834,66.683,96.173c17.708,19.375,26.333,34.619,34.842,61.582
	C435.423,493.162,385.455,440.652,339.25,345.765z M495.655,583.083c-48.804,15.798-73.116,18.804-86.884,10.741
	c-4.217-2.469-24.42-8.888-44.896-14.265c-49.981-13.123-77.4-24.856-59.429-25.432c6.996-0.224,15.08-2.767,17.965-5.651
	c30.648-30.648,211.255-12.425,211.255-5.178c0,6.089-79.378,13.197-112.24,10.051c-16.462-1.576-32.737-1.897-36.166-0.713
	c-30.776,10.623,64.266,20.398,114.827,11.809C562.586,553.828,560.631,562.049,495.655,583.083z M690.368,583.588
	c-6.252,6.253-45.047-24.659-61.145-48.719c-27.208-40.666-85.544-106.47-91.257-102.939c-2.438,1.507,6.259,16.171,19.328,32.586
	c70.18,88.148,76.288,98.397,52.446,87.994c-72.524-31.642-74.472-76.041-98.827-124.103c-14.738-29.084-13.963-32.149,5.896-23.309
	c62.616,27.875,136.923,94.093,155.152,138.261C683.007,570.122,697.116,576.841,690.368,583.588z M777.033,692.979
	c-18.422,0.292-38.625,2.32-44.895,4.507c-14.929,5.207-67.196-1.213-91.062-11.185c-10.358-4.328-25.292-7.869-33.188-7.869
	c-21.447,0-17.364-9.203,9.339-21.052c41.991-18.633,206.867-28.262,189.683-11.078c-1.534,1.534-13.693,3.889-27.021,5.233
	c-67.828,6.842-99.662,31.905-68.623,25.239c56.827-12.204,146.701-19.558,146.449-11.983
	C857.319,676.689,812.293,692.42,777.033,692.979z M943.331,628.549c-5.823,0-4.295-6.963-57.763-43.089
	c-22.068-14.91-50.881-35.164-64.03-45.008c-25.031-18.742-40.651-18.762-17.789-0.025c34.657,28.405,76.293,59.922,85.903,65.026
	c17.087,9.076,43.091,29.6,43.091,34.01c0,10.987-56.328-12.093-70.202-28.812c-19.041-22.945-74.071-19.957-108.117-92.352
	c-13.049-27.752-18.519-46.116-13.014-43.705c2.346,1.027,24.04,9.586,48.209,19.019c66.86,26.096,48.268,32.639,104.421,74.122
	C931.831,595.653,958.493,628.549,943.331,628.549z M1065.108,717.702c-48.803,32.936-43.406,40.855-134.86,48.275
	c-61.916,5.025-46.165,12.128-109.372,12.225c57.084-57.955,44.339-48.228,119.348-75.289c24.693-8.909,47.141-17.807,49.885-19.775
	c9.529-6.834,46.258-10.574,49.667-5.058c1.815,2.937,0.041,5.34-3.943,5.34c-10.694,0-9.372,14.965-20.719,14.965
	c-10.667,0-107.315,49.9-107.315,55.407c0,6.636,0.573,6.432,57.078-20.351c67.753-32.114,61.577-25.145,101.971-38.264
	C1101.992,683.763,1101.254,693.307,1065.108,717.702z M1235.989,662.431c-24.791,4.929-187.864-113.703-191.448-113.703
	c-18.068,0,77.376,72.763,134.139,102.263c21.117,10.975,38.399,22.76,38.404,26.189c0.001,0.469,0.036,0.924,0.097,1.364
	c-3.817,0.602-7.634,1.204-11.451,1.807c-0.17,0.027-0.317,0.076-0.468,0.122c-5.519-1.912-13.128-3.894-22.833-5.838
	c-48.176-9.648-54.603-29.629-113.707-67.531c-32.116-20.596-94.824-103.677-73.109-96.862c95.16,29.866,89.05,43.2,159.124,79.013
	C1196.391,610.543,1250.747,659.497,1235.989,662.431z M1259.487,806.367c-35.351,11.077-107.79,12.923-106.976,2.726
	c0.717-8.994,55.596-42.21,84.529-51.163c61.036-18.887,122.033-57.561,142.318-52.47c12.703,3.188,17.166,12.752,6.089,13.046
	c-11.687,0.31-134.531,63.422-129.5,66.531c5.136,3.175,42.388-12.201,113.854-46.993c46.344-22.562,56.813-19.705,83.148-19.705
	C1322.882,834.482,1346.555,779.085,1259.487,806.367z M1354.273,589.418c-45.035-38.567-72.909-43.466,48.638,52.379
	c69.46,54.773,67.931,61.228-23.696,16.53c-94.616-46.157-54.04-54.57-128.703-122.093l-30.928-27.971
	c54.939,10.019,36.958,8.677,86.848,20.919c31.301,7.681,46.46,33.454,59.726,41.533c25.337,15.431,50.734,32.126,70.483,54.148
	c10.133,11.299,24.884,27.161,24.884,43.282C1461.525,673.796,1400.458,628.97,1354.273,589.418z M1830.7,765.381
	c-57.681,30.923-62.976,67.115-157.072,80.168c-34.77,4.824-38.198,15.375-63.937,26.429c-17.398,7.472-84.576,5.993-103.641,5.993
	c71.336-66.974,79.213-76.732,126.608-89.437c31.535-8.453,69.398-25.843,83.836-38.504c10.527-9.232,55.359-14.437,67.212-7.803
	c8.2,4.589,7.02,6.136-10.565,13.843c-69.731,30.563-181.866,88.024-179.44,91.95c8.542,13.819,197.884-100.673,242.704-93.783
	C1847.371,755.923,1847.004,756.64,1830.7,765.381z M1948.094,653.166c-3.87,6.262,28.067,22.59,74.493,69.748
	c62.629,63.616-0.748,37.164-70.997-29.632c-102.093-97.076-91.385-162.832,11.269-69.201
	c46.564,42.473,60.342,34.167,90.318,93.247C2098.733,807.113,1962.408,630.007,1948.094,653.166z M2070.118,868.692
	c0,6.779-51.651,19.458-75.582,18.552c-53.58-2.026-0.893,18.527-166.358,8.185c59.185-38.403,70.668-26.361,114.572-54.153
	c40.116-25.393,59.592-32.204,102.884-35.981c48.271-4.211,49.32,1.163,3.437,17.599c-26.003,9.314-90.742,38.018-98.26,43.565
	c-1.143,0.844-0.944,2.668,0.442,4.055c2.317,2.317,17.357-2.809,93.787-31.966c29.158-11.123,73.139-20.602,77.12-16.62
	C2125.488,825.257,2070.118,863.139,2070.118,868.692z M2197.068,812.441c-20.413-2.926-30.387-5.874-34.67-10.246
	c-6.286-6.416,27.727-0.076,34.67,6.462C2200.061,811.477,2200.061,812.87,2197.068,812.441z M2409.33,875.352
	c-46.621-16.997-125.347-38.317-122.585-41.078c3.514-3.515,135.597,38.708,165.009,38.708c14.305,0,20.474,7.745,9.519,11.949
	C2449.881,889.302,2445.253,888.448,2409.33,875.352z M2303.909,977.434c-1.902,0.364-8.929-1.266-6.816-4.684
	c3.598-5.82,25.589-6.388,32.973-1.756C2321.454,973.545,2312.734,975.739,2303.909,977.434z M2701.976,972.433
	c6.641-6.641,23.512-0.072,39.09,4.407C2716.545,977.337,2695.537,978.872,2701.976,972.433z M2685.081,956.146
	c2.589,1.6,1.654,4.799-2.096,7.176c-9.236,5.853-9.299,5.84-31.784-6.234c-25.135-13.498-86.145-39.331-101.016-42.774
	c-11.544-2.672-19.083-10.119-14.69-14.512C2537.639,897.657,2672.848,948.585,2685.081,956.146z M2769.576,824.71
	c-141.989,30.402-243.916,67.386-310.358,85.922c-15.961,4.453-16.499,9.051-42.402,17.254c-31.583,10.003-60.66,29.9-82.975,29.9
	c-20.55,0-15.581-4.58,19.645-18.107C2713.536,801.416,3004.214,774.47,2769.576,824.71z M2969.428,806.649
	c95.984,3.547,127.366,61.344,154.191,61.344c11.661,0,40.956,16.508,51.442,22.001c-18.321,2.487-47.05,6.343-67.344,9.402
	c-53.402,8.05-139.519-13.889-175.143-44.62c-12.247-10.565-27.797-22.892-34.555-27.393c-17.199-11.455-7.844-18.062,11.604-8.195
	c21.996,11.16,66.155,21.922,83.36,31.112c40.013,21.373,196.035,54.356-48.38-30.015
	C2908.795,807.926,2914.795,804.63,2969.428,806.649z M3019.761,730.274c-21.915,24.541-31.699,23.873-57.945,28.657
	c37.253-35.452,118.598-109.46,109.006-119.052c-4.392-4.393-98.149,95.731-120.047,109.084
	c-30.573,18.644-29.719,13.302,6.479-40.532c23.719-35.274,33.609-45.324,59.305-60.265c43.158-25.093,75.911-54.538,82.328-54.538
	c12.662,0,63.688-57.745,30.119,8.435C3079.346,699.968,3075.517,667.837,3019.761,730.274z M3344.058,775.507
	c64.074,42.492,69.561,16.867,127.433,74.74c23.898,23.899,30.036,32.527,22.781,32.026c-27.975-1.935-104.627-19.669-134.642-31.15
	c-44.755-17.12-69.374,9.193-139.958-52.943c-16.307-14.356-36.946-29.629-45.862-33.94c-36.064-17.438-5.85-22.384,32.292-5.287
	c54.76,24.548,165.012,79.111,179.23,79.111c28.167,0-51.653-32.547-81.239-51.224c-10.612-6.699-35.767-18.614-55.9-26.477
	c-34.397-13.435-35.752-14.529-22.446-18.131C3252.852,734.894,3304.885,749.529,3344.058,775.507z M3572.02,641.69
	c18.426-25.733,78.549-73.003,92.851-73.003c2.642,0,10.245-5.882,16.897-13.072c13.629-14.732,49.49-31.824,66.771-31.824
	c6.297,0,19.579-3.397,29.517-7.55c24.918-10.411,22.611-2.967-5.626,18.161c-51.57,38.586-82.519,101.876-133.821,126.976
	c-48.668,23.811-47.741,13.613,3.319-36.51c61.494-60.366,45.836-60.376-8.266-6.924c-21.866,21.604-47.572,44.043-57.123,49.866
	C3544.93,687.077,3543.877,680.99,3572.02,641.69z M3764.047,756.07c27.374,7.958,101.912,53.597,101.912,62.4
	c0,7.102-59.279,4.643-87.299-3.621c-13.718-4.046-43.333-9.254-65.81-11.573c-78.516-8.1-71.682-32.311-131.066-62.402
	c-55.328-28.037-28.754-39.338,100.336,21.864c43.386,20.57,59.126,24.687,59.126,15.464c0-2.744-3.181-4.988-7.068-4.988
	c-10.026,0-57.341-28.088-100.183-44.772c-40.322-15.704-42.405-18.676-14.634-20.885
	C3660.224,704.306,3698.165,736.918,3764.047,756.07z M3825.71,678.493c-33.292,6.088-29.657,2.991,71.624-61.015
	c48.32-30.536,56.762-37.155,52.645-41.272c-2.537-2.537-75.231,37.511-102.831,56.651c-75.592,52.421-84.371,47.308-90.202,41.139
	c1.428-1.222,2.66-2.67,3.959-4.289c0.508-0.632,1.033-1.247,1.558-1.862c0.227-0.226,0.454-0.452,0.68-0.679
	c18.306-11.083,69.73-66.459,115.29-90.922c54.14-29.07,52.131-39.402,91.372-50.188c48.683-13.382,68.63-29.778,41.085,4.884
	c-24.616,30.976-9.011,28.347-52.506,60.281c-17.544,12.88-32.997,26.28-34.338,29.777
	C3919.92,631.756,3846.477,674.695,3825.71,678.493z M4119.166,725.36c34.058,12.662,80.95,52.841,61.67,52.841
	c-22.971,0-22.762,5.795-43.004-0.617c-35.294-11.179-146.17-4.89-147.003-38.043c-0.233-9.273-17.825-3.491-22.674-11.336
	c-1.734-2.805-16.457-11.817-32.719-20.026c-71.835-36.262-34.772-30.159,62.719,10.327c38.411,15.952,76.012,30.54,83.557,32.418
	c16.644,4.144,18.968-5.425,2.494-10.275c-9.395-2.767-82.482-34.823-128.453-56.341c-10.518-4.923-6.198-5.645,27.576-4.61
	C4047.597,681.669,4048.052,698.921,4119.166,725.36z M4130.948,622.318c-4.85,7.424-25.542,17.085-25.542,11.926
	c0-4.038,69.368-66.779,104.758-94.75c16.214-12.815,26.972-40.169-92.287,59.423c-55.498,46.346-77.615,52.944-46.144,13.765
	c70.417-87.659,57.621-53.433,110.994-96.052c19.621-15.668,85.259-46.426,89.667-42.018c11.21,11.21-47.822,83.604-91.562,112.287
	C4155.098,603.775,4132.649,619.713,4130.948,622.318z M4398.018,664.234l24.16,10.787c-53.313,11.476-93.58,32.389-134.689,22.982
	c-30.647-7.013-95.68,2.773-137.183-29.58l-12.471-9.722c53.047-0.343,192.454,19.794,152.148,8.915
	c-30.959-8.355-42.907-14.032-67.699-14.476c-26.302-0.47-43.206-7.063-30.948-12.071
	C4214.25,631.707,4362.346,648.306,4398.018,664.234z M4417.184,538.757c-5.193,16.362-105.565,82.306,24.943-58.981
	c21.557-23.337,26.024-30.813,18.413-30.813c-13.897,0-109.25,123.027-111.585,125.751c-21.757,25.372-49.625,23.86-29.73-1.613
	c5.11-6.543,13.956-20.876,19.656-31.851c24.715-47.581,170.592-166.609,170.592-139.195c0,17.692-42.328,87.913-63.859,105.94
	C4431.631,519.7,4418.838,533.543,4417.184,538.757z M4541.088,538.619c36.792-1.918,69.31-4.981,72.261-6.804
	c9.09-5.618,68.48,20.758,96.531,23.933c-15.368,10.381-12.182,15.391-69.572,27.916c-24.77,5.406-51.018,12.103-58.329,14.883
	c-27.333,10.392-66.515,1.319-94.953-21.988c-9.423-7.723-8.38-7.997,18.78-4.949c38.453,4.316,114.524-2.095,112.074-9.445
	c-3.504-10.516-52.136,4.911-127.426-5.983C4446.644,549.845,4468.021,542.429,4541.088,538.619z M4628.419,453.951
	c-2.52,0,4.087-12.908,14.683-28.684c60.016-89.359,53.405-134.41,29.495-80.345c-15.621,35.321-51.999,92.881-69.696,110.276
	c-15.905,15.635-26.525,18.16-20.981,4.989c22.801-54.169,27.881-85.901,53.513-105.041c4.802-3.585,8.73-8.558,8.73-11.051
	c0-8.659,28.009-48.632,45.802-65.368c42.17-39.662,38.731-39.074,35.703-6.102C4721.01,323.349,4650.964,453.951,4628.419,453.951z
	 M4934.955,311.307c-11.209,19.362-80.213,82.914-97.914,90.178c-91.397,37.507-81.411,54.896-142.991,42.709
	c-19.803-3.919-18.032-4.702,33.738-14.916c23.779-4.692,79.184-28.879,94.66-41.325c14.326-11.521-0.789-12.425-21.713-1.299
	c-25.634,13.629-106.289,39.425-110.404,35.31c-8.563-8.563,46.816-45.209,87.413-57.844c15.841-4.93,46.703-18.222,68.582-29.538
	C4885.173,314.491,4941.707,299.644,4934.955,311.307z"/>
</svg>
